<svg width="35" height="32" viewBox="0 0 35 32" fill="none" xmlns="http://www.w3.org/2000/svg">
<path d="M31.9999 15.1111C32.0061 17.4576 31.4579 19.7723 30.4 21.8667C29.1456 24.3764 27.2173 26.4874 24.831 27.9632C22.4447 29.4389 19.6946 30.2211 16.8889 30.2222C14.5424 30.2283 12.2277 29.6801 10.1333 28.6222L0 32L3.37777 21.8667C2.31987 19.7723 1.77166 17.4576 1.77777 15.1111C1.77886 12.3054 2.56108 9.55533 4.03683 7.16902C5.51257 4.78271 7.62355 2.85439 10.1333 1.60005C12.2277 0.54215 14.5424 -0.00606713 16.8889 5.06454e-05H17.7778C21.4832 0.20448 24.9831 1.76851 27.6073 4.39268C30.2315 7.01685 31.7955 10.5167 31.9999 14.2222V15.1111Z" fill="#D9D9D9"/>
<circle cx="26.5" cy="23.5" r="8.5" fill="#3064C7"/>
</svg>
