<svg width="237" height="82" viewBox="0 0 237 82" fill="none" xmlns="http://www.w3.org/2000/svg">
<g id="Vector">
<path d="M81.62 0H0V82H81.62V0Z" fill="#BB2029"/>
<path d="M70.5059 70.8429H39.1002V39.2909L48.4695 48.6952C48.4695 48.6952 55.815 41.6135 51.139 34.8561C48.6789 31.2978 43.6453 31.5695 43.6453 31.5695H31.4319V70.8341H12.414V12.5507H47.3093C47.3093 12.5507 66.1963 12.5507 71.038 34.6195C72.209 39.6088 71.9613 44.8283 70.3233 49.6831C68.6853 54.5379 65.7228 58.8328 61.7734 62.0784L70.5059 70.8429Z" fill="white"/>
<path d="M100.629 63.8752V67.6263H99.5126V59.1073H102.828C104.572 59.1073 105.497 60.0539 105.497 61.3861C105.525 61.8365 105.396 62.2826 105.132 62.6475C104.867 63.0123 104.484 63.2729 104.049 63.3844C104.747 63.5772 105.349 64.0943 105.349 65.5755V65.9348C105.304 66.5012 105.342 67.0711 105.462 67.6263H104.363C104.224 67.0264 104.177 66.4087 104.223 65.7946V65.6105C104.223 64.401 103.883 63.8576 102.365 63.8576L100.629 63.8752ZM100.629 62.9198H102.505C103.805 62.9198 104.372 62.429 104.372 61.4737C104.372 60.5184 103.787 60.0626 102.627 60.0626H100.655L100.629 62.9198Z" fill="#BB2029"/>
<path d="M114.526 63.3142C114.526 65.6631 113.226 67.749 110.548 67.749C108.062 67.749 106.666 65.8121 106.666 63.3668C106.666 60.9215 108.088 58.9846 110.653 58.9846C113.035 58.9846 114.526 60.7901 114.526 63.3142ZM107.844 63.3142C107.844 65.1548 108.777 66.7674 110.601 66.7674C112.572 66.7674 113.349 65.1372 113.349 63.3142C113.349 61.4912 112.476 59.9312 110.601 59.9312C108.725 59.9312 107.844 61.5088 107.844 63.3318V63.3142Z" fill="#BB2029"/>
<path d="M116.062 59.1073H117.178V63.2879C117.806 62.6306 119.961 60.4921 121.296 59.1073H122.692L119.08 62.7183L122.901 67.6439H121.54L118.286 63.4457L117.205 64.4361V67.6439H116.088L116.062 59.1073Z" fill="#BB2029"/>
<path d="M129.051 63.6385H124.838V66.6535H129.461L129.322 67.6263H123.73V59.1073H129.252V60.0889H124.838V62.7183H129.051V63.6385Z" fill="#BB2029"/>
<path d="M133.649 59.1073H139.093V60.0889H134.731V62.8497H138.796V63.8138H134.783V67.6351H133.649V59.1073Z" fill="#BB2029"/>
<path d="M140.305 59.1073H141.431V66.6535H145.854L145.697 67.6263H140.305V59.1073Z" fill="#BB2029"/>
<path d="M147.694 59.1073V64.2345C147.694 66.2416 148.785 66.785 149.875 66.785C151.14 66.785 152.039 66.1977 152.039 64.2345V59.1073H153.173V64.1732C153.173 66.934 151.646 67.7315 149.849 67.7315C148.052 67.7315 146.551 66.8551 146.551 64.2257V59.081L147.694 59.1073Z" fill="#BB2029"/>
<path d="M156.27 59.1073V67.6263H155.153V59.1073H156.27Z" fill="#BB2029"/>
<path d="M158.337 59.1073H161.364C161.909 59.083 162.453 59.1756 162.959 59.3788C163.465 59.5821 163.923 59.8913 164.301 60.286C164.679 60.6808 164.969 61.1519 165.151 61.668C165.334 62.184 165.405 62.7333 165.36 63.2792C165.36 65.7946 163.781 67.6614 161.321 67.6614H158.337V59.1073ZM159.454 66.6622H161.199C163.196 66.6622 164.147 65.2249 164.147 63.3055C164.147 61.6227 163.275 60.0714 161.207 60.0714H159.471L159.454 66.6622Z" fill="#BB2029"/>
<path d="M175.087 63.6385H170.873V66.6535H175.506L175.357 67.6263H169.774V59.1073H175.288V60.0889H170.873V62.7183H175.087V63.6385Z" fill="#BB2029"/>
<path d="M184.23 63.3142C184.23 65.6631 182.921 67.749 180.252 67.749C177.757 67.749 176.361 65.8121 176.361 63.3668C176.361 60.9215 177.783 58.9846 180.348 58.9846C182.764 58.9846 184.23 60.7901 184.23 63.3142ZM177.538 63.3142C177.538 65.1548 178.472 66.7674 180.295 66.7674C182.267 66.7674 183.052 65.1372 183.052 63.3142C183.052 61.4912 182.18 59.9312 180.304 59.9312C178.428 59.9312 177.53 61.5088 177.53 63.3318L177.538 63.3142ZM182.284 66.6009L184.779 68.3538L184.099 69.1426L181.237 67.118L182.284 66.6009Z" fill="#BB2029"/>
<path d="M186.943 59.1073V64.2345C186.943 66.2416 188.042 66.785 189.132 66.785C190.397 66.785 191.296 66.1977 191.296 64.2345V59.1073H192.43V64.1732C192.43 66.934 190.903 67.7315 189.106 67.7315C187.309 67.7315 185.809 66.8551 185.809 64.2257V59.081L186.943 59.1073Z" fill="#BB2029"/>
<path d="M195.527 59.1073V67.6263H194.402V59.1073H195.527Z" fill="#BB2029"/>
<path d="M197.594 59.1073H200.805C202.454 59.1073 203.588 60.0363 203.588 61.5876C203.588 63.1389 202.393 64.1206 200.744 64.1206H198.72V67.6263H197.594V59.1073ZM198.72 63.174H200.683C201.843 63.174 202.427 62.6043 202.427 61.6139C202.436 61.3942 202.396 61.1752 202.311 60.9725C202.227 60.7697 202.099 60.588 201.937 60.4402C201.774 60.2924 201.582 60.182 201.373 60.1168C201.164 60.0515 200.943 60.0331 200.726 60.0626H198.72V63.174Z" fill="#BB2029"/>
<path d="M212.251 63.9979C212.251 62.4115 212.251 60.8076 212.312 59.9136H212.259C211.902 61.2896 210.514 64.9444 209.555 67.6263H208.552C207.81 65.444 206.397 61.351 206.013 59.8961C206.074 60.8777 206.109 62.7708 206.109 64.2257V67.6263H205.01V59.1073H206.685C207.653 61.7366 208.831 65.1635 209.119 66.2415C209.319 65.4265 210.706 61.6841 211.736 59.1073H213.367V67.6263H212.251V63.9979Z" fill="#BB2029"/>
<path d="M220.748 63.6385H216.534V66.6535H221.149L221 67.6263H215.417V59.1073H220.939V60.0889H216.516V62.7183H220.73L220.748 63.6385Z" fill="#BB2029"/>
<path d="M222.475 67.6263V59.1073H223.958C225.179 61.0968 227.823 65.3301 228.32 66.2591C228.241 65.1635 228.25 63.8226 228.25 62.429V59.1073H229.306V67.6263H227.91C226.793 65.777 224.036 61.2196 223.504 60.2642C223.565 61.2371 223.565 62.6744 223.565 64.217V67.6263H222.475Z" fill="#BB2029"/>
<path d="M233.127 60.0889H230.387V59.1161H237V60.0889H234.235V67.6351H233.1L233.127 60.0889Z" fill="#BB2029"/>
<path d="M107.608 37.7659V51.2631H99.2509V16.2668H117.484C124.96 16.2668 128.964 20.2546 128.964 26.267C128.964 30.7894 126.809 33.4538 123.599 34.5494C124.925 35.1191 128.406 36.4951 128.406 42.7792V44.5321C128.538 46.8268 128.963 49.0949 129.671 51.2807H121.584C120.615 48.9608 120.12 46.4693 120.127 43.9536V42.8055C120.127 39.2997 117.972 37.7834 114.195 37.7834L107.608 37.7659ZM107.608 31.4029H115.591C119.333 31.4029 120.956 29.9481 120.956 27.0207C120.956 24.3125 119.298 22.77 115.66 22.77H107.643L107.608 31.4029Z" fill="black"/>
<path d="M167.314 33.6379C167.314 43.3401 161.513 52.0432 150.102 52.0432C139.45 52.0432 133.378 43.9273 133.378 33.708C133.378 24.0671 139.817 15.5393 150.451 15.5393C161.408 15.5043 167.314 24.0847 167.314 33.6379ZM142.015 33.5765C142.015 39.7555 144.815 44.5846 150.521 44.5846C156.409 44.5846 158.678 39.0455 158.678 33.7343C158.678 27.9585 156.156 22.9278 150.233 22.9278C144.536 22.9278 142.015 28.0812 142.015 33.5765Z" fill="black"/>
<path d="M234.671 36.5301H217.415V44.5058H236.66V51.3245H209.11V16.2668H236.66V23.0855H217.415V29.7289H234.671V36.5301Z" fill="black"/>
<path d="M191.401 29.8429H191.2L203.849 16.2931H192.857L181.403 29.8429V16.2931H173.255V51.307H181.403V40.3164L184.928 36.5477L194.855 51.307L206.109 51.2632L191.401 29.8429Z" fill="black"/>
</g>
</svg>
